<?xml version="1.0" standalone="no"?>
<!DOCTYPE svg PUBLIC "-//W3C//DTD SVG 20010904//EN"
 "http://www.w3.org/TR/2001/REC-SVG-20010904/DTD/svg10.dtd">
<svg version="1.0" xmlns="http://www.w3.org/2000/svg"
 width="1080.000000pt" height="1080.000000pt" viewBox="0 0 1080.000000 1080.000000"
 preserveAspectRatio="xMidYMid meet">
<metadata>
Created by potrace 1.11, written by Peter Selinger 2001-2013
</metadata>
<g transform="translate(0.000000,1080.000000) scale(0.100000,-0.100000)"
fill="#000000" stroke="none">
<path d="M0 5400 l0 -5400 5400 0 5400 0 0 5400 0 5400 -5400 0 -5400 0 0
-5400z m3862 4693 c89 -42 150 -100 192 -183 56 -112 57 -233 5 -346 -34 -73
-131 -166 -204 -195 l-60 -24 -1025 -5 -1025 -5 -57 -27 c-80 -37 -152 -107
-191 -187 l-32 -66 -5 -1025 -5 -1025 -23 -57 c-27 -67 -103 -155 -167 -192
-109 -64 -246 -71 -361 -17 -89 41 -147 99 -192 189 l-37 76 -3 995 c-3 1059
-1 1122 44 1280 30 104 97 247 162 345 60 91 207 238 298 298 151 101 347 176
509 197 39 5 529 8 1090 7 l1020 -1 67 -32z m5243 26 c175 -22 361 -92 519
-197 91 -60 238 -207 298 -298 65 -98 132 -241 162 -345 45 -158 47 -221 44
-1279 l-3 -995 -32 -67 c-43 -91 -101 -151 -187 -193 -121 -60 -257 -56 -371
11 -64 37 -140 125 -167 192 l-23 57 -5 1025 -5 1025 -32 66 c-39 80 -111 150
-191 187 l-57 27 -1025 5 -1025 5 -60 24 c-73 29 -170 122 -204 195 -90 195
-12 424 179 521 29 15 71 30 94 35 65 13 1985 12 2091 -1z m-4552 -1397 c81
-33 168 -116 209 -200 l33 -67 0 -1210 0 -1210 -24 -60 c-33 -83 -133 -183
-216 -216 l-60 -24 -1044 -3 c-1135 -3 -1108 -4 -1204 52 -91 54 -165 157
-187 259 -7 36 -10 411 -8 1227 l3 1175 23 57 c27 67 105 157 166 193 95 55
63 54 1201 52 l1050 -2 58 -23z m3952 -1 c44 -18 78 -42 126 -90 48 -48 72
-82 90 -126 l24 -60 0 -895 0 -895 -23 -58 c-33 -81 -116 -168 -200 -209 l-67
-33 -905 0 -905 0 -65 31 c-83 39 -155 111 -194 194 l-31 65 0 905 0 905 27
57 c29 63 101 146 155 179 19 12 60 30 91 40 54 17 109 18 937 16 l880 -2 60
-24z m-2763 -363 c113 -52 186 -131 219 -239 18 -58 19 -122 19 -1648 0 -1563
0 -1588 -20 -1647 -26 -77 -82 -150 -150 -196 -109 -73 17 -68 -1796 -68
-1810 0 -1680 -5 -1788 68 -292 196 -196 647 153 712 34 6 551 10 1432 10
l1379 0 2 1363 3 1362 23 58 c46 113 138 201 247 237 85 28 199 23 277 -12z
m2880 -2416 c85 -42 168 -129 199 -209 31 -82 31 -206 0 -286 -42 -106 -126
-188 -241 -234 -41 -16 -104 -18 -777 -21 l-731 -3 -4 -122 c-3 -115 -5 -127
-35 -188 -39 -80 -111 -150 -191 -187 -50 -24 -69 -27 -162 -27 -93 0 -112 3
-162 27 -80 37 -152 107 -191 187 l-32 66 0 375 0 375 27 58 c47 99 159 193
262 218 17 4 468 6 1001 6 l970 -2 67 -33z m-168 -1147 c143 -37 256 -155 286
-298 7 -36 10 -373 8 -1097 l-3 -1045 -24 -60 c-33 -83 -133 -183 -216 -216
l-60 -24 -1025 0 -1025 0 -58 23 c-81 33 -168 116 -209 200 l-33 67 0 725 0
725 27 57 c52 112 126 181 235 219 84 30 205 23 291 -16 81 -36 170 -129 204
-212 23 -58 23 -61 26 -530 l3 -473 539 0 540 0 0 590 0 590 -253 0 c-332 0
-394 16 -499 128 -201 215 -100 570 184 646 80 22 979 22 1062 1z m-3972 -562
c85 -40 151 -106 191 -191 l32 -67 0 -815 0 -815 -33 -67 c-41 -84 -128 -167
-209 -200 l-58 -23 -1025 0 -1025 0 -60 24 c-83 33 -183 133 -216 216 l-24 60
-3 785 c-3 764 -2 786 18 851 25 84 83 162 156 211 105 71 39 67 1169 65
l1020 -2 67 -32z m994 6 c123 -23 238 -112 292 -227 l27 -57 0 -550 0 -550
-33 -67 c-131 -266 -485 -303 -664 -69 -82 107 -82 101 -86 639 -4 511 1 577
44 669 50 104 168 194 281 213 69 11 73 11 139 -1z m-4312 -154 c32 -8 78 -27
102 -41 63 -37 139 -125 166 -192 l23 -57 5 -1025 5 -1025 27 -57 c37 -80 107
-152 187 -191 l66 -32 1025 -5 1025 -5 60 -24 c73 -29 170 -122 204 -195 52
-113 51 -234 -5 -346 -42 -83 -103 -141 -192 -183 l-67 -32 -995 -3 c-691 -2
-1025 0 -1094 8 -261 30 -503 147 -691 335 -188 188 -305 430 -335 691 -8 69
-10 404 -8 1094 l3 995 32 67 c86 182 270 272 457 223z m8731 -23 c90 -42 148
-100 193 -190 l37 -76 3 -995 c2 -690 0 -1026 -8 -1095 -30 -261 -147 -503
-335 -691 -188 -188 -430 -305 -691 -335 -69 -8 -403 -10 -1094 -8 l-995 3
-67 32 c-89 42 -150 100 -192 183 -56 112 -57 233 -5 346 34 73 131 166 204
195 l60 24 1025 5 1025 5 66 32 c80 39 150 111 187 191 l27 57 5 1025 5 1025
23 57 c27 67 103 155 167 192 108 64 246 71 360 18z"/>
<path d="M2840 7240 l0 -720 585 0 585 0 0 720 0 720 -585 0 -585 0 0 -720z"/>
<path d="M7140 7550 l0 -410 410 0 410 0 0 410 0 410 -410 0 -410 0 0 -410z"/>
<path d="M2840 3160 l0 -320 540 0 540 0 0 320 0 320 -540 0 -540 0 0 -320z"/>
</g>
</svg>
