<svg width="94px" height="116px" viewBox="0 0 94 116" version="1.1" xmlns="http://www.w3.org/2000/svg" xmlns:xlink="http://www.w3.org/1999/xlink">
    <title>404</title>
    <defs/>
    <g id="Page-1" stroke="none" stroke-width="1" fill-rule="evenodd" fill="#000000">
        <g id="iPhone-7" transform="translate(-141.000000, -159.000000)" fill-rule="nonzero" fill="#fff">
            <g id="Group-2" transform="translate(56.000000, 159.000000)">
                <g id="Group" transform="translate(85.200000, 0.000000)">
                    <g id="noun_Sad-MacBook_1713646" transform="translate(22.800000, 43.800000)">
                        <polygon id="Shape" points="48 4.8 48 0 43.2 0 43.2 4.8 38.4 4.8 38.4 0 33.6 0 33.6 4.8 38.4 4.8 38.4 9.6 33.6 9.6 33.6 14.4 38.4 14.4 38.4 9.6 43.2 9.6 43.2 14.4 48 14.4 48 9.6 43.2 9.6 43.2 4.8"/>
                        <polygon id="Shape" points="14.4 4.8 14.4 0 9.6 0 9.6 4.8 4.8 4.8 4.8 0 0 0 0 4.8 4.8 4.8 4.8 9.6 0 9.6 0 14.4 4.8 14.4 4.8 9.6 9.6 9.6 9.6 14.4 14.4 14.4 14.4 9.6 9.6 9.6 9.6 4.8"/>
                        <rect id="Rectangle-path" x="19.2" y="19.2" width="9.6" height="4.8"/>
                        <polygon id="Shape" points="14.4 38.4 14.4 33.6 33.6 33.6 33.6 38.4 38.4 38.4 38.4 33.6 33.6 33.6 33.6 28.8 14.4 28.8 14.4 33.6 9.6 33.6 9.6 38.4"/>
                    </g>
                    <g id="noun_Pixelated-Web-Page_1692887">
                        <path d="M86.4,18 L86.4,14.4 L82.8,14.4 L82.8,10.8 L79.2,10.8 L79.2,7.2 L75.6,7.2 L75.6,10.8 L79.2,10.8 L79.2,14.4 L82.8,14.4 L82.8,18 L86.4,18 L86.4,21.6 L72,21.6 L72,7.2 L75.6,7.2 L75.6,3.6 L72,3.6 L72,0 L0,0 L0,115.2 L93.6,115.2 L93.6,21.6 L90,21.6 L90,18 L86.4,18 Z M90,111.6 L3.6,111.6 L3.6,3.6 L68.4,3.6 L68.4,25.2 L90,25.2 L90,111.6 Z" id="Shape"/>
                    </g>
                </g>
            </g>
        </g>
    </g>
</svg>